<?xml version="1.0" standalone="no"?>
<!DOCTYPE svg PUBLIC "-//W3C//DTD SVG 20010904//EN"
 "http://www.w3.org/TR/2001/REC-SVG-20010904/DTD/svg10.dtd">
<svg version="1.0" xmlns="http://www.w3.org/2000/svg"
 width="96.000000pt" height="96.000000pt" viewBox="0 0 96.000000 96.000000"
 preserveAspectRatio="xMidYMid meet">

<g transform="translate(0.000000,96.000000) scale(0.100000,-0.100000)"
fill="#000000" stroke="none">
<path d="M583 663 l137 -4 0 -179 0 -180 -242 -2 c-225 -1 -237 -13 -18 -17
l75 -1 -89 -89 -89 -90 39 -6 c21 -3 49 -7 61 -9 46 -6 146 15 201 43 69 36
141 108 176 178 26 51 46 152 40 196 -2 12 -6 40 -9 61 l-6 39 -58 -57 -58
-57 -6 80 c-3 44 -8 84 -12 90 -4 7 -55 10 -143 9 l-137 -2 138 -3z"/>
<path d="M233 380 c0 -41 2 -58 4 -37 2 20 2 54 0 75 -2 20 -4 3 -4 -38z"/>
</g>
</svg>
