<svg id="Camada_1" data-name="Camada 1" xmlns="http://www.w3.org/2000/svg" viewBox="0 0 1000 1000"><defs><style>.cls-1{fill:#4b1bbf;}.cls-2{fill:none;stroke:#fff;stroke-linecap:round;stroke-linejoin:round;stroke-width:25px;}.cls-3{fill:#fff;}</style></defs><rect class="cls-1" width="1000" height="1000" rx="500"/><polyline class="cls-2" points="315.45 712.66 315.45 285.26 515.81 712.66 715.81 285.26 715.81 712.66"/><path class="cls-3" d="M817.82,761.6a24,24,0,0,0-34.11.11l-2.59,2.61a375.21,375.21,0,1,1,0-530.33l1,1a24.21,24.21,0,0,0,34.31.12h0A399.06,399.06,0,0,0,539.82,99.86C297.25,85.58,105.17,275.21,116.39,517.94c9.81,212.19,185,381.22,399.56,381.22,120.49,0,228.54-53.28,301.87-137.56Z" transform="translate(0)"/></svg>