<svg id="Camada_1" data-name="Camada 1" xmlns="http://www.w3.org/2000/svg" viewBox="0 0 3356.93 1000"><defs><style>.cls-1,.cls-4{fill:#4b1bbf;}.cls-2{fill:none;stroke:#fff;stroke-linecap:round;stroke-linejoin:round;stroke-width:25px;}.cls-3{fill:#fff;}.cls-4,.cls-5{font-size:260px;}.cls-4{font-family:Poppins-Regular, Poppins;letter-spacing:0.05em;}.cls-5{fill:#555;font-family:MyriadPro-Regular, Myriad Pro;letter-spacing:0.25em;}.cls-6{letter-spacing:0.26em;}.cls-7{letter-spacing:0.27em;}.cls-8{letter-spacing:0.24em;}</style></defs><rect class="cls-1" width="1000" height="1000" rx="500"/><polyline class="cls-2" points="315.52 712.59 315.52 285.2 515.87 712.59 715.87 285.2 715.87 712.59"/><path class="cls-3" d="M817.89,761.54a24,24,0,0,0-34.12.11l-2.59,2.61a375.24,375.24,0,1,1,0-530.33l1,1a24.19,24.19,0,0,0,34.3.13h0A399.11,399.11,0,0,0,539.88,99.79C297.31,85.52,105.23,275.15,116.45,517.88c9.81,212.19,185,381.21,399.57,381.21,120.49,0,228.53-53.27,301.87-137.55Z" transform="translate(0)"/><text class="cls-4" transform="translate(1063.76 440.22)">MATHEUS COSTA</text><text class="cls-5" transform="translate(1286.84 732.22)">IT <tspan class="cls-6" x="441.48" y="0">S</tspan><tspan x="636.21" y="0">e</tspan><tspan class="cls-7" x="831.47" y="0">r</tspan><tspan x="987.99" y="0">vi</tspan><tspan class="cls-8" x="1303.88" y="0">c</tspan><tspan x="1483.8" y="0">es</tspan></text></svg>